<svg xmlns="http://www.w3.org/2000/svg" version="1.1" xmlns:xlink="http://www.w3.org/1999/xlink" xmlns:svgjs="http://svgjs.dev/svgjs" width="1000" height="396" viewBox="0 0 1000 396"><g transform="matrix(1,0,0,1,-0.6060606060606801,0.30756457223549205)"><svg viewBox="0 0 396 157" data-background-color="#ffffff" preserveAspectRatio="xMidYMid meet" height="396" width="1000" xmlns="http://www.w3.org/2000/svg" xmlns:xlink="http://www.w3.org/1999/xlink"><g id="tight-bounds" transform="matrix(1,0,0,1,0.24000000000003752,-0.12193847939639113)"><svg viewBox="0 0 395.5199999999999 157.24387695879278" height="157.24387695879278" width="395.5199999999999"><g><svg viewBox="0 0 395.52000000000004 157.2438769587928" height="157.24387695879278" width="395.5199999999999"><g><svg viewBox="0 0 395.52000000000004 157.2438769587928" height="157.2438769587928" width="395.52000000000004"><g><svg viewBox="0 0 395.52000000000004 157.2438769587928" height="157.2438769587928" width="395.52000000000004"><g><svg viewBox="0 0 395.52000000000004 157.2438769587928" height="157.2438769587928" width="395.52000000000004"><g transform="matrix(1,0,0,1,0,0)"><svg width="395.52000000000004" viewBox="-9.000000953674316 -31.25 86.1500015258789 31.25" height="157.2438769587928" data-palette-color="#ed3b43"><svg></svg><g class="undefined-text-0" data-fill-palette-color="primary" id="text-0"><path xmlns="http://www.w3.org/2000/svg" d="M38.25-31.25l-1.45 8h-6.9l-4.05 23.25h-9.5l4.05-23.25h-6.85l1.45-8zM15.2-2.4l-0.4 2.25-21.2-2.25zM16.9-12.05l-0.4 2.25-21.2-2.25zM17.75-16.85l-0.4 2.25-21.2-2.25zM18.6-21.65l-0.4 2.25-21.2-2.25zM16.05-7.25l-0.4 2.25-21.2-2.25zM12.55-26.45l-0.35 2.25-21.2-2.25zM13.4-31.25l-0.4 2.25-21.15-2.25zM58.75-12.65v0l0.05-0.95h-0.4l-2.35 13.6h-9.5l5.5-31.25h9.5l-2.25 12.75h0.4c0.267-1.067 0.567-1.867 0.9-2.4v0l6.3-10.35h10.25l-9.8 15.35 4.55 15.9h-10.25l-2.75-11.2c-0.1-0.333-0.15-0.817-0.15-1.45zM45.45-2.4l-0.4 2.25-21.2-2.25zM47.15-12.05l-0.4 2.25-21.2-2.25zM48-16.85l-0.4 2.25-21.2-2.25zM48.85-21.65l-0.4 2.25-21.2-2.25zM49.65-26.45l-0.35 2.25-21.2-2.25zM46.3-7.25l-0.4 2.25-21.2-2.25zM50.5-31.25l-0.4 2.25-21.15-2.25z" fill="#ed3b43" fill-rule="nonzero" stroke="none" stroke-width="1" stroke-linecap="butt" stroke-linejoin="miter" stroke-miterlimit="10" stroke-dasharray="" stroke-dashoffset="0" font-family="none" font-weight="none" font-size="none" text-anchor="none" style="mix-blend-mode: normal" data-fill-palette-color="primary" opacity="1"></path></g></svg></g></svg></g></svg></g></svg></g></svg></g><defs></defs></svg><rect width="395.5199999999999" height="157.24387695879278" fill="none" stroke="none" visibility="hidden"></rect></g></svg></g></svg>